<?xml version="1.0" encoding="UTF-8" standalone="no"?>
<svg
   xmlns:dc="http://purl.org/dc/elements/1.1/"
   xmlns:cc="http://creativecommons.org/ns#"
   xmlns:rdf="http://www.w3.org/1999/02/22-rdf-syntax-ns#"
   xmlns:svg="http://www.w3.org/2000/svg"
   xmlns="http://www.w3.org/2000/svg"
   viewBox="0 0 1122.52 384"
   height="384"
   width="1122.52"
   xml:space="preserve"
   id="svg2"
   version="1.1"><metadata
     id="metadata8"><rdf:RDF><cc:Work
         rdf:about=""><dc:format>image/svg+xml</dc:format><dc:type
           rdf:resource="http://purl.org/dc/dcmitype/StillImage" /></cc:Work></rdf:RDF></metadata><defs
     id="defs6"><clipPath
       id="clipPath18"
       clipPathUnits="userSpaceOnUse"><path
         id="path16"
         d="M 0,288 H 841.89 V 0 H 0 Z" /></clipPath><linearGradient
       id="linearGradient46"
       spreadMethod="pad"
       gradientTransform="matrix(-3.1e-6,71.865211,71.865211,3.1e-6,52.17041,47.946289)"
       gradientUnits="userSpaceOnUse"
       y2="0"
       x2="1"
       y1="0"
       x1="0"><stop
         id="stop40"
         offset="0"
         style="stop-opacity:1;stop-color:#68c6b6" /><stop
         id="stop42"
         offset="0.84884599"
         style="stop-opacity:1;stop-color:#325876" /><stop
         id="stop44"
         offset="1"
         style="stop-opacity:1;stop-color:#325876" /></linearGradient><linearGradient
       id="linearGradient68"
       spreadMethod="pad"
       gradientTransform="matrix(-8.9e-6,-204.6228,-204.6228,8.9e-6,76.603027,240.33154)"
       gradientUnits="userSpaceOnUse"
       y2="0"
       x2="1"
       y1="0"
       x1="0"><stop
         id="stop62"
         offset="0"
         style="stop-opacity:1;stop-color:#68c6b6" /><stop
         id="stop64"
         offset="0.84884599"
         style="stop-opacity:1;stop-color:#325876" /><stop
         id="stop66"
         offset="1"
         style="stop-opacity:1;stop-color:#325876" /></linearGradient><linearGradient
       id="linearGradient90"
       spreadMethod="pad"
       gradientTransform="matrix(-6e-6,-138.02528,-138.02528,6e-6,100.92725,235.77197)"
       gradientUnits="userSpaceOnUse"
       y2="0"
       x2="1"
       y1="0"
       x1="0"><stop
         id="stop84"
         offset="0"
         style="stop-opacity:1;stop-color:#325876" /><stop
         id="stop86"
         offset="0.828364"
         style="stop-opacity:1;stop-color:#68c6b6" /><stop
         id="stop88"
         offset="1"
         style="stop-opacity:1;stop-color:#68c6b6" /></linearGradient><linearGradient
       id="linearGradient112"
       spreadMethod="pad"
       gradientTransform="matrix(618.24023,0,0,-618.24023,204.61084,159.25293)"
       gradientUnits="userSpaceOnUse"
       y2="0"
       x2="1"
       y1="0"
       x1="0"><stop
         id="stop106"
         offset="0"
         style="stop-opacity:1;stop-color:#68c6b6" /><stop
         id="stop108"
         offset="0.84884599"
         style="stop-opacity:1;stop-color:#325876" /><stop
         id="stop110"
         offset="1"
         style="stop-opacity:1;stop-color:#325876" /></linearGradient><linearGradient
       id="linearGradient134"
       spreadMethod="pad"
       gradientTransform="matrix(618.23706,0,0,-618.23706,204.60547,160.60254)"
       gradientUnits="userSpaceOnUse"
       y2="0"
       x2="1"
       y1="0"
       x1="0"><stop
         id="stop128"
         offset="0"
         style="stop-opacity:1;stop-color:#68c6b6" /><stop
         id="stop130"
         offset="0.84884599"
         style="stop-opacity:1;stop-color:#325876" /><stop
         id="stop132"
         offset="1"
         style="stop-opacity:1;stop-color:#325876" /></linearGradient><linearGradient
       id="linearGradient156"
       spreadMethod="pad"
       gradientTransform="matrix(618.22742,0,0,-618.22742,204.60937,160.60254)"
       gradientUnits="userSpaceOnUse"
       y2="0"
       x2="1"
       y1="0"
       x1="0"><stop
         id="stop150"
         offset="0"
         style="stop-opacity:1;stop-color:#68c6b6" /><stop
         id="stop152"
         offset="0.84884599"
         style="stop-opacity:1;stop-color:#325876" /><stop
         id="stop154"
         offset="1"
         style="stop-opacity:1;stop-color:#325876" /></linearGradient><linearGradient
       id="linearGradient178"
       spreadMethod="pad"
       gradientTransform="matrix(618.21338,0,0,-618.21338,204.61963,159.25293)"
       gradientUnits="userSpaceOnUse"
       y2="0"
       x2="1"
       y1="0"
       x1="0"><stop
         id="stop172"
         offset="0"
         style="stop-opacity:1;stop-color:#68c6b6" /><stop
         id="stop174"
         offset="0.84884599"
         style="stop-opacity:1;stop-color:#325876" /><stop
         id="stop176"
         offset="1"
         style="stop-opacity:1;stop-color:#325876" /></linearGradient><linearGradient
       id="linearGradient200"
       spreadMethod="pad"
       gradientTransform="matrix(618.24005,0,0,-618.24005,204.60791,159.25293)"
       gradientUnits="userSpaceOnUse"
       y2="0"
       x2="1"
       y1="0"
       x1="0"><stop
         id="stop194"
         offset="0"
         style="stop-opacity:1;stop-color:#68c6b6" /><stop
         id="stop196"
         offset="0.84884599"
         style="stop-opacity:1;stop-color:#325876" /><stop
         id="stop198"
         offset="1"
         style="stop-opacity:1;stop-color:#325876" /></linearGradient><clipPath
       id="clipPath210"
       clipPathUnits="userSpaceOnUse"><path
         id="path208"
         d="M 0,288 H 841.89 V 0 H 0 Z" /></clipPath><linearGradient
       id="linearGradient224"
       spreadMethod="pad"
       gradientTransform="matrix(433.125,0,0,433.125,-519.2124,421.8189)"
       gradientUnits="userSpaceOnUse"
       y2="0"
       x2="1"
       y1="0"
       x1="0"><stop
         id="stop218"
         offset="0"
         style="stop-opacity:1;stop-color:#68c6b6" /><stop
         id="stop220"
         offset="0.84884599"
         style="stop-opacity:1;stop-color:#325876" /><stop
         id="stop222"
         offset="1"
         style="stop-opacity:1;stop-color:#325876" /></linearGradient></defs><g
     transform="matrix(1.3333333,0,0,-1.3333333,0,384)"
     id="g10"><g
       id="g12"><g
         clip-path="url(#clipPath18)"
         id="g14"><text
           id="text22"
           style="font-variant:normal;font-weight:normal;font-stretch:normal;font-size:29.17230034px;font-family:'Courier New';-inkscape-font-specification:CourierNewPSMT;writing-mode:lr-tb;fill:#767677;fill-opacity:1;fill-rule:nonzero;stroke:none"
           transform="matrix(1,0,0,-1,211.3662,56.0117)"><tspan
             id="tspan20"
             y="0"
             x="0 65.404297 130.80859 196.21289 261.61719 327.02148 392.42578 457.83008 523.23438 588.63867">STRINTCONS</tspan></text>
</g></g><path
       id="path24"
       style="fill:#767677;fill-opacity:1;fill-rule:nonzero;stroke:none"
       d="m 100.135,167.804 h 77.647 v 77.648 h -77.647 z m 79.069,-1.424 h -80.49 v 80.492 h 80.49 z" /><path
       id="path26"
       style="fill:#767677;fill-opacity:1;fill-rule:nonzero;stroke:none"
       d="m 21.062,88.728 h 77.653 v 77.653 H 21.062 Z m 79.073,-1.42 H 19.639 v 80.496 h 80.496 z" /><g
       id="g28"><g
         id="g30"><g
           id="g36"><g
             id="g38"><path
               id="path48"
               style="fill:url(#linearGradient46);stroke:none"
               d="M 43.097,92.145 C 35.154,84.216 30.245,73.259 30.245,61.138 v 0 -6.198 c 24.224,0 43.852,19.65 43.852,43.869 v 0 6.183 c -12.118,0 -23.078,-4.904 -31,-12.847" /></g></g></g></g><g
       id="g50"><g
         id="g52"><g
           id="g58"><g
             id="g60"><path
               id="path70"
               style="fill:url(#linearGradient68);stroke:none"
               d="M 98.641,240.05 C 60.322,238.821 30.245,206.659 30.245,168.326 v 0 V 54.94 c 0,12.119 4.909,23.076 12.852,31.019 v 0 c 7.928,7.924 18.868,12.833 31.005,12.833 v 0 70.331 c 0,0.183 0,0.363 0.017,0.543 v 0 c 0.216,31.219 20.642,57.668 48.843,66.888 v 0 c -6.959,2.281 -14.391,3.531 -22.098,3.53 v 0 c -0.738,0 -1.48,-0.011 -2.223,-0.034" /></g></g></g></g><g
       id="g72"><g
         id="g74"><g
           id="g80"><g
             id="g82"><path
               id="path92"
               style="fill:url(#linearGradient90);stroke:none"
               d="m 74.119,169.656 c 0.126,14.675 12.106,26.558 26.809,26.558 v 0 c 14.793,0 26.822,-12.026 26.822,-26.82 v 0 c 0,-14.792 -12.029,-26.82 -26.822,-26.82 v 0 H 74.106 v 0.088 c -12.118,0 -23.079,-4.915 -31.009,-12.851 v 0 C 35.159,121.882 30.245,110.915 30.245,98.801 v 0 -43.861 c 0,12.119 4.914,23.079 12.852,31.007 v 0 c 7.93,7.938 18.891,12.854 31.009,12.854 v 0 -0.089 h 26.822 c 7.392,0 14.527,1.145 21.226,3.257 v 0 c 28.638,9.036 49.456,35.845 49.456,67.425 v 0 c 0,31.285 -20.431,57.887 -48.652,67.165 v 0 C 94.757,227.334 74.338,200.897 74.119,169.656" /></g></g></g></g><g
       id="g94"><g
         id="g96"><g
           id="g102"><g
             id="g104"><path
               id="path114"
               style="fill:url(#linearGradient112);stroke:none"
               d="m 218.106,218.307 v -3.224 h 4.446 c 4.469,0 7.837,-1.276 10.101,-3.834 v 0 c 1.567,-1.859 2.351,-6.473 2.351,-13.847 v 0 -76.299 c 0,-6.679 -0.58,-10.947 -1.741,-12.805 v 0 c -1.044,-1.625 -2.482,-2.843 -4.31,-3.658 v 0 c -1.831,-0.813 -3.966,-1.217 -6.401,-1.217 v 0 h -4.446 v -3.225 h 50.607 v 3.225 h -4.529 c -4.474,0 -7.811,1.275 -10.016,3.834 v 0 c -1.625,1.796 -2.441,6.415 -2.441,13.846 v 0 34.405 c 7.433,-1.626 14.052,-2.441 19.861,-2.441 v 0 c 5.803,0 10.972,0.798 15.504,2.397 v 0 c 4.528,1.596 8.345,3.833 11.453,6.706 v 0 c 3.105,2.875 5.471,6.301 7.098,10.279 v 0 c 1.626,3.977 2.439,8.376 2.439,13.195 v 0 c 0,3.54 -0.567,6.85 -1.699,9.93 v 0 c -1.133,3.074 -2.687,5.877 -4.661,8.404 v 0 c -1.973,2.527 -4.265,4.718 -6.879,6.576 v 0 c -2.615,1.858 -5.432,3.339 -8.449,4.443 v 0 c -6.156,2.205 -14.488,3.31 -24.999,3.31 v 0 z m 41.852,-59.141 c -2.352,0.29 -5.095,0.725 -8.231,1.306 v 0 49.124 c 2.321,0.578 4.428,1 6.315,1.264 v 0 c 1.887,0.26 3.584,0.389 5.097,0.389 v 0 c 3.539,0 6.836,-0.607 9.885,-1.825 v 0 c 3.05,-1.22 5.705,-3.008 7.969,-5.36 v 0 c 2.265,-2.35 4.035,-5.223 5.315,-8.621 v 0 c 1.275,-3.397 1.913,-7.246 1.913,-11.542 v 0 c 0,-3.656 -0.595,-7.027 -1.782,-10.104 v 0 c -1.195,-3.077 -2.79,-5.736 -4.793,-7.968 v 0 c -2.003,-2.235 -4.353,-3.979 -7.053,-5.229 v 0 c -2.701,-1.247 -5.564,-1.87 -8.581,-1.87 v 0 c -1.685,0 -3.703,0.145 -6.054,0.436" /></g></g></g></g><g
       id="g116"><g
         id="g118"><g
           id="g124"><g
             id="g126"><path
               id="path136"
               style="fill:url(#linearGradient134);stroke:none"
               d="m 495.696,221.008 -41.548,-97.203 c -1.858,-4.3 -3.586,-7.857 -5.182,-10.673 v 0 c -1.598,-2.817 -3.151,-4.921 -4.66,-6.314 v 0 c -1.511,-1.394 -4.702,-2.527 -9.583,-3.395 v 0 -3.225 h 37.195 v 3.225 c -2.908,0.229 -5.257,0.567 -7.056,1.002 v 0 c -1.8,0.432 -3.196,0.984 -4.181,1.651 v 0 c -0.988,0.671 -1.64,1.397 -1.96,2.181 v 0 c -0.32,0.785 -0.48,1.638 -0.48,2.568 v 0 c 0,2.321 0.988,5.748 2.966,10.278 v 0 l 8.012,18.639 h 45.724 l 7.143,-16.984 c 1.16,-2.787 2.048,-5.184 2.656,-7.184 v 0 c 0.61,-2.007 0.885,-3.646 0.828,-4.924 v 0 c 0,-0.988 -0.19,-1.888 -0.566,-2.699 v 0 c -0.379,-0.814 -1.016,-1.54 -1.917,-2.177 v 0 c -0.898,-0.643 -2.134,-1.162 -3.702,-1.568 v 0 c -1.565,-0.408 -3.512,-0.669 -5.834,-0.783 v 0 -3.225 h 46.599 v 3.225 c -2.441,0.114 -4.545,0.432 -6.316,0.957 v 0 c -1.77,0.522 -3.412,1.464 -4.921,2.829 v 0 c -1.51,1.365 -2.975,3.281 -4.4,5.751 v 0 c -1.423,2.466 -2.975,5.734 -4.658,9.798 v 0 l -41.111,98.25 z m -3.224,-27.091 20.032,-47.731 h -40.586 z" /></g></g></g></g><g
       id="g138"><g
         id="g140"><g
           id="g146"><g
             id="g148"><path
               id="path158"
               style="fill:url(#linearGradient156);stroke:none"
               d="M 624.518,221.008 582.97,123.805 c -1.86,-4.3 -3.584,-7.857 -5.184,-10.673 v 0 c -1.598,-2.817 -3.149,-4.921 -4.66,-6.314 v 0 c -1.508,-1.394 -4.702,-2.527 -9.582,-3.395 v 0 -3.225 h 37.194 v 3.225 c -2.906,0.229 -5.254,0.567 -7.053,1.002 v 0 c -1.804,0.432 -3.198,0.984 -4.182,1.651 v 0 c -0.989,0.671 -1.644,1.397 -1.962,2.181 v 0 c -0.321,0.785 -0.479,1.638 -0.479,2.568 v 0 c 0,2.321 0.99,5.748 2.963,10.278 v 0 l 8.012,18.639 h 45.729 l 7.14,-16.984 c 1.159,-2.787 2.048,-5.184 2.66,-7.184 v 0 c 0.608,-2.007 0.882,-3.646 0.825,-4.924 v 0 c 0,-0.988 -0.192,-1.888 -0.567,-2.699 v 0 c -0.379,-0.814 -1.015,-1.54 -1.916,-2.177 v 0 c -0.901,-0.643 -2.133,-1.162 -3.702,-1.568 v 0 c -1.569,-0.408 -3.513,-0.669 -5.835,-0.783 v 0 -3.225 h 46.599 v 3.225 c -2.437,0.114 -4.544,0.432 -6.316,0.957 v 0 c -1.77,0.522 -3.411,1.464 -4.919,2.829 v 0 c -1.51,1.365 -2.976,3.281 -4.402,5.751 v 0 c -1.423,2.466 -2.974,5.734 -4.656,9.798 v 0 l -41.112,98.25 z m -3.226,-27.091 20.034,-47.731 h -40.588 z" /></g></g></g></g><g
       id="g160"><g
         id="g162"><g
           id="g168"><g
             id="g170"><path
               id="path180"
               style="fill:url(#linearGradient178);stroke:none"
               d="m 764.833,218.307 v -3.224 h 4.185 c 2.785,0 5.454,-0.696 8.011,-2.088 v 0 c 1.044,-0.583 1.87,-1.192 2.483,-1.831 v 0 c 0.608,-0.641 1.072,-1.523 1.394,-2.656 v 0 c 0.318,-1.133 0.534,-2.569 0.651,-4.311 v 0 c 0.116,-1.743 0.176,-4.008 0.176,-6.795 v 0 -76.299 c 0,-7.141 -0.699,-11.614 -2.093,-13.412 v 0 c -2.148,-2.847 -5.69,-4.268 -10.622,-4.268 v 0 h -4.185 v -3.225 h 50.607 v 3.225 h -4.269 c -2.79,0 -5.429,0.694 -7.927,2.087 v 0 c -1.046,0.583 -1.886,1.206 -2.526,1.874 v 0 c -0.64,0.665 -1.118,1.553 -1.438,2.657 v 0 c -0.319,1.104 -0.536,2.525 -0.65,4.266 v 0 c -0.12,1.744 -0.177,4.008 -0.177,6.796 v 0 76.299 c 0,7.142 0.725,11.612 2.178,13.411 v 0 c 2.148,2.847 5.663,4.27 10.54,4.27 v 0 h 4.269 v 3.224 z" /></g></g></g></g><g
       id="g182"><g
         id="g184"><g
           id="g190"><g
             id="g192"><path
               id="path202"
               style="fill:url(#linearGradient200);stroke:none"
               d="m 316.061,218.307 v -3.224 h 4.445 c 4.47,0 7.837,-1.276 10.103,-3.834 v 0 c 1.624,-1.8 2.439,-6.414 2.439,-13.847 v 0 -76.299 c 0,-6.739 -0.609,-11.005 -1.828,-12.805 v 0 c -2.209,-3.25 -5.778,-4.875 -10.714,-4.875 v 0 h -4.445 v -3.225 h 50.61 v 3.225 h -4.617 c -4.415,0 -7.724,1.275 -9.931,3.834 v 0 c -1.625,1.796 -2.439,6.415 -2.439,13.846 v 0 34.316 c 0.928,-0.056 1.828,-0.102 2.701,-0.129 v 0 c 0.869,-0.03 1.68,-0.045 2.436,-0.045 v 0 c 0.929,0 1.99,0.015 3.184,0.045 v 0 c 1.189,0.027 2.536,0.073 4.049,0.129 v 0 l 39.977,-55.221 h 31.532 v 3.225 c -6.391,0.694 -11.618,2.322 -15.681,4.875 v 0 c -3.948,2.497 -8.741,7.666 -14.372,15.507 v 0 l -24.387,33.879 c 4.936,1.103 9.233,2.615 12.893,4.529 v 0 c 3.658,1.917 6.69,4.183 9.098,6.794 v 0 c 2.411,2.614 4.197,5.502 5.359,8.668 v 0 c 1.159,3.165 1.744,6.574 1.744,10.234 v 0 c 0,3.366 -0.571,6.532 -1.703,9.493 v 0 c -1.131,2.962 -2.67,5.63 -4.615,8.012 v 0 c -1.943,2.381 -4.209,4.444 -6.792,6.184 v 0 c -2.584,1.742 -5.354,3.049 -8.319,3.921 v 0 c -6.04,1.856 -15.272,2.788 -27.697,2.788 v 0 z m 36.498,-57.442 c -0.815,0.028 -1.771,0.041 -2.875,0.041 v 0 49.123 c 2.903,0.581 5.486,1.002 7.754,1.267 v 0 c 2.262,0.259 4.235,0.39 5.921,0.39 v 0 c 3.716,0 7.126,-0.608 10.234,-1.828 v 0 c 3.106,-1.219 5.778,-2.932 8.013,-5.141 v 0 c 2.234,-2.207 3.962,-4.835 5.182,-7.879 v 0 c 1.219,-3.05 1.828,-6.406 1.828,-10.062 v 0 c 0,-3.715 -0.71,-7.159 -2.13,-10.32 v 0 c -1.428,-3.166 -3.56,-5.911 -6.403,-8.233 v 0 c -2.847,-2.324 -6.404,-4.136 -10.672,-5.444 v 0 c -4.266,-1.306 -9.216,-1.958 -14.849,-1.958 v 0 c -0.524,0 -1.191,0.012 -2.003,0.044" /></g></g></g></g><g
       id="g204"><g
         clip-path="url(#clipPath210)"
         id="g206"><g
           transform="translate(737.3184,224.5835)"
           id="g212"><path
             id="path214"
             style="fill:#767677;fill-opacity:1;fill-rule:nonzero;stroke:none"
             d="m 0,0 c -3.109,0 -5.812,0.843 -8.109,2.532 -2.297,1.69 -3.445,3.684 -3.445,5.982 0,2.296 1.148,4.29 3.445,5.98 2.297,1.687 5,2.534 8.109,2.534 3.241,0 5.977,-0.847 8.208,-2.534 2.23,-1.69 3.347,-3.684 3.347,-5.98 0,-2.298 -1.117,-4.292 -3.347,-5.982 C 5.977,0.843 3.241,0 0,0 m -34.663,-129.935 c 4.731,4.328 8.682,9.867 11.857,16.624 3.174,6.758 5.744,13.749 7.702,20.978 1.959,7.229 3.448,14.222 4.461,20.98 1.013,6.757 1.725,12.367 2.129,16.827 -6.76,-1.491 -13.819,-3.925 -21.184,-7.299 -7.366,-3.38 -14.628,-8.107 -21.787,-14.19 -3.652,-3.109 -7.028,-6.758 -10.136,-10.945 -2.708,-3.515 -5.205,-7.772 -7.503,-12.774 -2.299,-4.992 -3.784,-10.537 -4.459,-16.617 -0.407,-4.053 -0.271,-7.4 0.407,-10.035 0.672,-2.636 1.553,-4.694 2.633,-6.183 1.218,-1.756 2.636,-3.174 4.258,-4.258 3.92,-2.296 7.704,-3.241 11.353,-2.836 3.65,0.406 7.025,1.353 10.135,2.836 3.513,1.622 6.892,3.923 10.134,6.892 m 26.554,81.285 c 0.133,2.298 0.235,4.562 0.305,6.792 0.068,2.231 0.101,4.222 0.101,5.98 V -30 c -0.137,3.918 -0.239,7.805 -0.302,11.657 -0.073,3.85 -0.239,7.531 -0.509,11.047 -0.134,0.942 0.099,1.722 0.701,2.33 0.6,0.609 1.237,0.775 1.909,0.508 5.22,-1.624 9.567,-4.126 13.052,-7.5 1.871,-1.761 3.206,-3.921 4.008,-6.488 0.806,-2.57 1.14,-5.205 1.005,-7.905 0,-3.11 -0.068,-6.319 -0.202,-9.63 -0.136,-3.312 -0.339,-6.725 -0.608,-10.237 2.567,0 5.203,-0.068 7.906,-0.201 2.699,-0.136 5.403,-0.405 8.109,-0.81 1.35,-0.274 2.16,-1.084 2.431,-2.434 0.134,-0.679 -0.1,-1.285 -0.709,-1.825 -0.609,-0.541 -1.249,-0.81 -1.927,-0.81 -1.622,0.269 -3.819,0.507 -6.587,0.709 -2.771,0.204 -6.05,0.169 -9.83,-0.1 -0.27,-2.435 -0.672,-5.746 -1.204,-9.933 C 9.006,-65.811 8.168,-70.51 7.03,-75.71 5.894,-80.912 4.456,-86.421 2.723,-92.233 c -1.742,-5.81 -3.881,-11.48 -6.419,-17.024 -2.54,-5.54 -5.533,-10.779 -8.979,-15.711 -3.444,-4.931 -7.466,-9.087 -12.054,-12.467 -3.652,-2.97 -7.636,-5.269 -11.96,-6.892 -3.65,-1.483 -7.905,-2.533 -12.772,-3.142 -4.865,-0.606 -10.133,0.034 -15.809,1.927 -5.003,1.62 -8.686,4.762 -11.048,9.424 -2.366,4.662 -3.515,10.005 -3.448,16.016 0.069,6.014 1.319,12.297 3.752,18.851 2.431,6.552 5.943,12.599 10.537,18.143 2.705,3.241 5.983,6.551 9.833,9.933 3.852,3.374 8.212,6.653 13.075,9.831 4.866,3.171 10.204,6.045 16.014,8.615 5.808,2.562 11.959,4.591 18.446,6.079" /></g><g
           transform="translate(218.1064,90.7646)"
           id="g216"><path
             id="path226"
             style="fill:none;stroke:url(#linearGradient224);stroke-width:1;stroke-linecap:butt;stroke-linejoin:miter;stroke-miterlimit:10;stroke-dasharray:none;stroke-opacity:1"
             d="M 0,0 H 433.125" /></g><g
           transform="translate(723.125,90.7646)"
           id="g228"><path
             id="path230"
             style="fill:none;stroke:#767677;stroke-width:1;stroke-linecap:butt;stroke-linejoin:miter;stroke-miterlimit:10;stroke-dasharray:none;stroke-opacity:1"
             d="M 0,0 H 92.314" /></g></g></g></g></svg>